<svg width="2504" height="629" viewBox="0 0 2504 629" fill="none" xmlns="http://www.w3.org/2000/svg">
<path d="M678.934 501.311C706.204 501.311 728.264 493.031 745.104 476.461C761.944 459.891 770.374 437.961 770.374 410.691V280.761C770.374 232.041 809.874 192.541 858.594 192.541V407.481C858.594 434.751 854.304 459.331 845.764 481.261C837.204 503.191 825.174 521.891 809.674 537.391C794.154 552.911 775.304 564.801 753.134 573.071C730.944 581.371 706.214 585.511 678.944 585.511C651.674 585.511 626.934 581.371 604.754 573.071C582.574 564.791 563.584 552.901 547.814 537.391C532.034 521.891 519.864 503.191 511.314 481.261C502.764 459.331 498.484 434.741 498.484 407.481V280.771C498.484 232.041 537.984 192.541 586.714 192.541V410.691C586.714 437.961 595.254 459.891 612.374 476.461C629.474 493.031 651.674 501.311 678.934 501.311Z" fill="#02DF82"/>
<path d="M1227.5 389.051C1227.5 360.261 1250.84 336.911 1279.64 336.911H1315.72V442.771C1315.72 459.891 1320.66 473.241 1330.56 482.881L1330.86 483.171C1353.41 504.901 1371.87 548.311 1371.87 579.631V585.531C1347.27 585.531 1324.95 580.721 1304.9 571.091C1284.85 561.471 1268.67 548.131 1256.37 531.001C1238.73 548.121 1218.28 561.471 1195.02 571.091C1171.76 580.731 1146.49 585.531 1119.23 585.531C1091.97 585.531 1066.3 580.441 1042.24 570.291C1018.18 560.151 997.325 546.231 979.695 528.581C962.045 510.951 948.135 490.101 937.985 466.041C927.825 441.981 922.745 416.321 922.745 389.051C922.745 361.781 927.815 335.451 937.985 311.661C948.135 287.861 962.045 267.151 979.695 249.501C997.335 231.851 1018.18 217.951 1042.24 207.791C1066.3 197.651 1091.96 192.551 1119.23 192.551H1227.49C1276.22 192.551 1315.72 232.051 1315.72 280.781H1119.23C1104.26 280.781 1090.22 283.581 1077.12 289.201C1064.01 294.801 1052.52 302.431 1042.63 312.041C1032.73 321.681 1024.99 333.041 1019.37 346.141C1013.76 359.251 1010.95 373.531 1010.95 389.051C1010.95 404.571 1013.76 418.181 1019.37 431.551C1024.99 444.921 1032.73 456.401 1042.63 466.041C1052.52 475.661 1064.01 483.281 1077.12 488.881C1090.22 494.501 1104.25 497.301 1119.23 497.301C1134.21 497.301 1149.03 494.501 1162.14 488.881C1175.24 483.281 1186.61 475.651 1196.22 466.041C1205.85 456.401 1213.46 444.921 1219.08 431.551C1224.69 418.181 1227.5 404.021 1227.5 389.051Z" fill="#02DF82"/>
<path d="M1600.42 272.741C1572.62 272.741 1550.29 280.901 1533.45 297.211C1516.61 313.521 1508.19 335.311 1508.19 362.571V489.281C1508.19 538.011 1468.69 577.511 1419.96 577.511V362.571C1419.96 336.911 1424.5 313.111 1433.59 291.201C1442.68 269.271 1455.25 250.421 1471.28 234.641C1487.33 218.881 1506.3 206.581 1528.23 197.761C1550.15 188.941 1574.21 184.531 1600.41 184.531C1626.61 184.531 1650.66 188.931 1672.59 197.761C1694.51 206.581 1713.49 218.881 1729.54 234.641C1745.58 250.421 1758 269.271 1766.83 291.201C1775.65 313.111 1780.07 336.911 1780.07 362.571V489.291C1780.07 538.011 1740.57 577.511 1691.85 577.511V362.571C1691.85 335.301 1683.55 313.521 1666.99 297.211C1650.41 280.901 1628.21 272.741 1600.42 272.741Z" fill="#02DF82"/>
<path d="M1877.92 192.551V176.511C1877.92 127.791 1917.42 88.291 1966.14 88.291V192.541H2058.37C2058.37 241.271 2018.87 280.771 1970.14 280.771H1966.13V409.081C1966.13 437.951 1974.02 459.881 1989.79 474.851C1993.48 478.351 1997.55 481.451 2002.02 484.131C2037.39 505.381 2058.36 544.251 2058.36 585.521C2031.09 585.521 2006.35 581.241 1984.17 572.701C1961.99 564.141 1943 552.231 1927.23 536.991C1911.45 521.751 1899.28 503.191 1890.73 481.261C1882.18 459.331 1877.9 435.271 1877.9 409.081V280.771H1829.78V240.661C1829.78 214.081 1851.32 192.541 1877.9 192.541L1877.92 192.551Z" fill="#02DF82"/>
<path d="M2102.47 385.031C2102.47 356.691 2107.68 330.361 2118.11 306.031C2128.54 281.711 2142.7 260.451 2160.61 242.271C2178.52 224.091 2199.77 209.931 2224.37 199.771C2248.96 189.611 2275.16 184.531 2302.96 184.531C2330.76 184.531 2357.62 189.601 2381.96 199.771C2406.28 209.931 2427.54 224.091 2445.72 242.271C2463.89 260.451 2478.07 281.711 2488.23 306.031C2498.37 330.351 2503.47 356.691 2503.47 385.031C2503.47 413.371 2498.38 439.031 2488.23 463.621C2478.07 488.231 2463.89 509.471 2445.72 527.381C2427.54 545.291 2406.28 559.451 2381.96 569.881C2357.63 580.311 2331.3 585.521 2302.96 585.521C2274.62 585.521 2248.96 580.311 2224.37 569.881C2199.77 559.451 2178.52 545.291 2160.61 527.381C2142.7 509.471 2128.54 488.231 2118.11 463.621C2107.68 439.031 2102.47 412.841 2102.47 385.031ZM2190.69 385.031C2190.69 401.081 2193.62 415.911 2199.51 429.541C2205.38 443.171 2213.26 454.941 2223.16 464.821C2233.05 474.721 2244.82 482.611 2258.45 488.491C2272.08 494.371 2286.92 497.291 2302.96 497.291C2319 497.291 2333.84 494.371 2347.48 488.491C2361.11 482.611 2373 474.721 2383.16 464.821C2393.31 454.941 2401.21 443.171 2406.81 429.541C2412.43 415.911 2415.24 401.081 2415.24 385.031C2415.24 368.981 2412.43 354.151 2406.81 340.521C2401.2 326.891 2393.31 315.001 2383.16 304.841C2373 294.681 2361.11 286.781 2347.48 281.171C2333.84 275.571 2319.01 272.751 2302.96 272.751C2286.91 272.751 2272.08 275.571 2258.45 281.171C2244.82 286.791 2233.05 294.681 2223.16 304.841C2213.26 315.001 2205.38 326.891 2199.51 340.521C2193.62 354.151 2190.69 368.981 2190.69 385.031Z" fill="#02DF82"/>
<path d="M379.275 433.351C367.065 411.021 354.865 391.491 342.685 374.681C338.615 369.071 334.545 363.781 330.475 358.781C313.985 339.011 296.095 322.871 277.065 310.591C326.075 282.411 364.845 243.561 393.195 194.001C404.195 174.681 413.075 154.461 419.785 133.301C436.745 80.031 394.005 26.251 336.995 26.251C336.995 58.521 331.395 88.761 320.015 117.161C308.655 145.591 293.095 170.141 273.325 191.271C253.585 212.401 230.375 228.781 203.425 240.831C197.965 243.261 192.425 245.451 186.825 247.381C186.745 206.531 186.665 165.661 186.555 124.811C188.195 124.941 190.485 125.181 193.195 125.691C211.695 129.161 223.835 140.301 230.385 146.451C235.565 151.311 242.875 159.271 249.135 170.951C256.585 163.681 264.895 154.511 273.035 143.271C281.845 131.111 288.265 119.541 292.955 109.651C282.895 100.961 270.205 91.431 254.685 82.521C229.675 68.161 206.135 60.491 188.195 56.211C188.165 54.931 188.195 52.761 188.225 50.091C188.475 34.571 189.535 30.831 188.415 23.591C187.545 18.111 187.045 14.851 184.615 11.141C180.445 4.81097 172.415 -0.0790324 163.215 0.000967643C150.905 0.0809676 143.775 9.03097 142.705 10.391C138.415 16.001 137.595 21.821 137.385 24.441C137.415 35.341 137.415 46.241 137.415 57.171C136.815 57.301 135.745 57.541 134.415 57.861C120.515 61.091 109.845 64.191 107.715 64.701C85.4345 70.021 66.5345 81.211 50.1845 96.381C30.0845 115.031 17.6345 137.921 12.3945 164.741C6.30452 195.971 9.00452 226.561 21.5445 255.461C31.9745 279.531 49.1745 299.091 71.7545 313.941C85.7345 323.161 100.155 331.441 115.715 337.481C117.955 338.331 120.225 339.141 122.515 339.911C124.285 340.521 125.605 340.901 126.395 341.141C128.875 341.911 132.595 343.091 137.695 344.831C137.745 348.621 137.835 352.441 137.885 356.241V356.881C137.695 404.891 137.505 452.921 137.315 500.931C135.975 500.481 134.035 499.781 131.695 498.851C131.695 498.851 122.525 494.921 114.165 490.301C95.3245 479.881 84.0445 462.891 76.9745 444.001C69.2745 423.431 57.8845 414.211 35.6945 413.441C15.3545 412.721 -1.16548 432.171 0.0645169 450.091C1.70452 474.001 13.1745 494.441 28.0745 512.711C35.6645 522.011 44.2345 530.291 53.7445 537.451C56.3345 539.431 65.6545 546.291 79.8445 553.241C91.9445 559.171 111.495 567.031 137.895 570.691C137.325 583.941 137.325 594.951 137.485 603.151C137.625 610.521 137.835 613.971 140.165 617.681C144.975 625.451 155.205 628.661 163.375 628.391C164.415 628.361 177.985 627.721 184.615 617.701C186.715 614.551 187.235 611.561 188.245 605.541C189.475 598.271 188.735 594.451 188.815 579.071C188.845 575.811 188.865 573.171 188.925 571.481C202.785 570.451 223.095 567.291 245.475 557.481C261.495 550.461 273.935 542.071 282.895 534.961C276.385 524.271 269.785 512.581 263.345 499.911C257.415 488.261 252.255 477.021 247.735 466.341C243.745 471.081 240.155 474.721 237.605 477.181C228.005 486.441 216.215 497.661 198.755 501.841C195.175 502.691 191.735 503.201 188.515 503.441C188.485 501.221 188.435 497.961 188.375 494.011C187.745 445.661 189.745 424.981 188.515 381.221C188.435 378.741 188.325 374.411 188.105 368.961C192.415 371.931 198.315 375.991 205.775 381.281C206.295 381.651 206.455 381.761 206.625 381.891C209.405 383.871 216.455 389.131 225.245 397.921C231.745 404.411 238.105 411.761 244.335 419.931C256.645 435.831 269.185 456.051 282.425 479.931L298.265 508.521C334.305 573.681 403.935 614.261 479.655 614.261L379.305 433.341L379.275 433.351ZM138.065 253.321C136.315 253.371 133.665 253.351 130.585 252.791C107.235 248.541 87.6845 219.401 88.1245 192.201C88.3445 178.871 91.3445 167.491 97.0245 157.791C106.255 141.951 119.635 134.441 125.095 131.451C130.365 128.561 135.085 126.801 138.445 125.711C138.145 147.781 137.845 169.841 137.515 191.941H137.435C137.655 212.401 137.845 232.871 138.065 253.331V253.321Z" fill="#02DF82"/>
<path d="M610.547 76.8965H581.344C579.119 76.8965 577.012 77.3329 575.025 78.207C573.118 79.0017 571.41 80.1146 569.9 81.5449C568.47 82.9752 567.317 84.6834 566.443 86.6699C565.649 88.5771 565.251 90.6837 565.251 92.9883C565.251 95.2132 565.649 97.3191 566.443 99.3057C567.317 101.292 568.47 103.001 569.9 104.432C571.41 105.862 573.118 107.014 575.025 107.888C577.012 108.682 579.119 109.08 581.344 109.08C583.648 109.08 585.754 108.682 587.661 107.888C589.647 107.014 591.356 105.862 592.786 104.432C594.217 103.001 595.329 101.292 596.124 99.3057C596.998 97.3191 597.436 95.2132 597.436 92.9883V85.2402H610.547V143.648H597.436V116.352C595.052 118.179 592.429 119.61 589.568 120.643C586.708 121.676 583.608 122.192 580.271 122.192C576.377 122.192 572.681 121.437 569.185 119.927C565.768 118.417 562.788 116.351 560.245 113.729C557.782 111.106 555.795 108.007 554.285 104.432C552.855 100.856 552.14 97.041 552.14 92.9883C552.14 88.856 552.894 85.0415 554.404 81.5449C555.914 77.9689 557.98 74.8695 560.603 72.2471C563.225 69.6247 566.324 67.5587 569.9 66.0488C573.476 64.539 577.291 63.7842 581.344 63.7842H610.547V76.8965ZM742.156 63.7842C746.209 63.7842 750.024 64.539 753.6 66.0488C757.176 67.5587 760.275 69.6247 762.897 72.2471C765.52 74.8694 767.586 77.969 769.096 81.5449C770.606 85.0414 771.36 88.8561 771.36 92.9883C771.36 97.041 770.606 100.856 769.096 104.432C767.665 108.007 765.678 111.106 763.136 113.729C760.672 116.351 757.731 118.417 754.314 119.927C750.897 121.437 747.202 122.192 743.229 122.192C739.891 122.192 736.792 121.676 733.932 120.643C731.071 119.61 728.448 118.179 726.064 116.352V143.648H712.952V85.2402H726.064V92.9883C726.064 95.2132 726.461 97.3191 727.256 99.3057C728.13 101.292 729.282 103.001 730.713 104.432C732.143 105.862 733.813 107.014 735.72 107.888C737.706 108.682 739.852 109.08 742.156 109.08C744.381 109.08 746.447 108.682 748.354 107.888C750.341 107.014 752.05 105.862 753.48 104.432C754.99 103.001 756.142 101.292 756.937 99.3057C757.811 97.3191 758.248 95.2132 758.248 92.9883C758.248 90.6837 757.811 88.5771 756.937 86.6699C756.142 84.6836 754.99 82.9751 753.48 81.5449C752.05 80.1145 750.341 79.0017 748.354 78.207C746.447 77.333 744.381 76.8965 742.156 76.8965H712.952V63.7842H742.156ZM1208.01 63.7842C1212.07 63.7842 1215.88 64.539 1219.46 66.0488C1223.03 67.5587 1226.13 69.6247 1228.75 72.2471C1231.38 74.8695 1233.44 77.9689 1234.95 81.5449C1236.46 85.0414 1237.22 88.856 1237.22 92.9883C1237.22 97.041 1236.46 100.856 1234.95 104.432C1233.52 108.007 1231.54 111.106 1228.99 113.729C1226.53 116.351 1223.59 118.417 1220.17 119.927C1216.76 121.437 1213.06 122.192 1209.09 122.192C1205.75 122.192 1202.65 121.676 1199.79 120.643C1196.93 119.61 1194.31 118.179 1191.92 116.352V143.648H1178.81V85.2402H1191.92V92.9883C1191.92 95.2132 1192.32 97.3191 1193.11 99.3057C1193.99 101.292 1195.14 103.001 1196.57 104.432C1198 105.862 1199.67 107.014 1201.58 107.888C1203.56 108.682 1205.71 109.08 1208.01 109.08C1210.24 109.08 1212.3 108.682 1214.21 107.888C1216.2 107.014 1217.91 105.862 1219.34 104.432C1220.85 103.001 1222 101.292 1222.79 99.3057C1223.67 97.3191 1224.11 95.2132 1224.11 92.9883C1224.11 90.6837 1223.67 88.5771 1222.79 86.6699C1222 84.6834 1220.85 82.9752 1219.34 81.5449C1217.91 80.1145 1216.2 79.0017 1214.21 78.207C1212.3 77.333 1210.24 76.8965 1208.01 76.8965H1178.81V63.7842H1208.01ZM635.616 96.2061C635.616 100.259 636.888 103.517 639.431 105.98C641.974 108.444 645.272 109.676 649.324 109.676C653.377 109.676 656.635 108.444 659.099 105.98C661.642 103.517 662.913 100.259 662.913 96.2061V63.7842H676.025V95.7295C676.025 99.7823 675.39 103.438 674.118 106.696C672.847 109.954 671.058 112.736 668.754 115.04C666.449 117.345 663.629 119.133 660.291 120.404C657.033 121.596 653.377 122.192 649.324 122.192C645.272 122.192 641.577 121.596 638.239 120.404C634.981 119.133 632.159 117.345 629.775 115.04C627.471 112.736 625.684 109.954 624.412 106.696C623.141 103.438 622.505 99.7823 622.505 95.7295V63.7842H635.616V96.2061ZM808.35 62.5918C812.561 62.5918 816.455 63.3466 820.031 64.8564C823.687 66.3663 826.866 68.473 829.567 71.1748C832.269 73.8765 834.375 77.0548 835.885 80.71C837.395 84.2858 838.149 88.18 838.149 92.3916C838.149 96.5237 837.395 100.418 835.885 104.073C834.375 107.729 832.269 110.908 829.567 113.609C826.866 116.232 823.687 118.337 820.031 119.927C816.455 121.437 812.561 122.192 808.35 122.192C804.217 122.192 800.323 121.437 796.668 119.927C793.013 118.337 789.834 116.232 787.132 113.609C784.509 110.908 782.404 107.729 780.814 104.073C779.305 100.418 778.55 96.5238 778.55 92.3916C778.55 88.18 779.305 84.2858 780.814 80.71C782.404 77.0548 784.51 73.8765 787.132 71.1748C789.834 68.4729 793.013 66.3663 796.668 64.8564C800.323 63.3466 804.217 62.5918 808.35 62.5918ZM970.265 62.5918C974.556 62.5918 978.49 63.3467 982.065 64.8564C985.721 66.2868 988.86 68.3538 991.482 71.0557C994.105 73.6779 996.131 76.8164 997.562 80.4717C999.071 84.127 999.826 88.1006 999.826 92.3916C999.826 92.9478 999.786 93.5043 999.707 94.0605C999.707 94.5373 999.628 95.1732 999.469 95.9678H954.054C954.769 100.021 956.517 103.239 959.299 105.623C962.16 107.927 965.815 109.08 970.265 109.08C973.284 109.08 975.947 108.524 978.251 107.411C980.635 106.299 982.542 104.67 983.973 102.524H998.277C997.324 105.544 995.973 108.286 994.225 110.749C992.476 113.133 990.37 115.199 987.906 116.947C985.522 118.616 982.82 119.927 979.801 120.881C976.861 121.755 973.682 122.192 970.265 122.192C965.974 122.192 962 121.477 958.345 120.047C954.769 118.537 951.669 116.47 949.047 113.848C946.425 111.225 944.358 108.087 942.849 104.432C941.418 100.776 940.703 96.7623 940.703 92.3916C940.703 88.1006 941.418 84.127 942.849 80.4717C944.358 76.8165 946.425 73.6779 949.047 71.0557C951.669 68.3538 954.769 66.2868 958.345 64.8564C962 63.3466 965.974 62.5918 970.265 62.5918ZM1068.38 39.9443C1072.59 39.9444 1076.45 40.5405 1079.94 41.7324C1083.52 42.9244 1086.58 44.6324 1089.12 46.8574C1091.67 49.003 1093.65 51.5858 1095.08 54.6055C1096.51 57.5457 1097.23 60.8039 1097.23 64.3799H1082.92C1082.92 61.0424 1081.57 58.3405 1078.87 56.2744C1076.17 54.1288 1072.63 53.0557 1068.26 53.0557C1064.05 53.0557 1060.63 53.9305 1058.01 55.6787C1055.39 57.3475 1054.08 59.5723 1054.08 62.3535C1054.08 65.1348 1055.51 67.4002 1058.37 69.1484C1061.23 70.8967 1065.96 72.4459 1072.55 73.7969C1077.48 74.7505 1081.69 75.9427 1085.19 77.373C1088.69 78.7239 1091.55 80.3924 1093.77 82.3789C1096 84.2861 1097.63 86.5514 1098.66 89.1738C1099.69 91.7166 1100.21 94.6567 1100.21 97.9941C1100.21 105.623 1097.55 111.583 1092.22 115.874C1086.9 120.086 1079.43 122.192 1069.81 122.192C1064.73 122.192 1060.12 121.557 1055.99 120.285C1051.93 119.014 1048.48 117.225 1045.62 114.921C1042.75 112.537 1040.57 109.676 1039.06 106.339C1037.55 102.922 1036.79 99.1468 1036.79 95.0146H1051.1C1051.1 97.0012 1051.54 98.869 1052.41 100.617C1053.36 102.365 1054.67 103.875 1056.34 105.146C1058.01 106.338 1060 107.292 1062.3 108.007C1064.61 108.722 1067.11 109.08 1069.81 109.08C1074.58 109.08 1078.43 108.126 1081.38 106.219C1084.39 104.312 1085.9 101.849 1085.9 98.8291C1085.9 95.8888 1084.51 93.5045 1081.73 91.6768C1078.95 89.8491 1074.42 88.3791 1068.14 87.2666C1058.21 85.4389 1050.98 82.6974 1046.45 79.042C1042 75.3865 1039.77 70.4195 1039.77 64.1416C1039.77 60.5656 1040.45 57.3075 1041.8 54.3672C1043.23 51.4269 1045.22 48.8839 1047.76 46.7383C1050.3 44.5927 1053.32 42.9244 1056.82 41.7324C1060.32 40.5405 1064.17 39.9443 1068.38 39.9443ZM1139.53 62.5918C1143.74 62.5918 1147.63 63.3466 1151.21 64.8564C1154.86 66.3663 1158.04 68.473 1160.74 71.1748C1163.44 73.8765 1165.55 77.0548 1167.06 80.71C1168.57 84.2858 1169.33 88.18 1169.33 92.3916C1169.33 96.5237 1168.57 100.418 1167.06 104.073C1165.55 107.729 1163.44 110.908 1160.74 113.609C1158.04 116.232 1154.86 118.337 1151.21 119.927C1147.63 121.437 1143.74 122.192 1139.53 122.192C1135.39 122.192 1131.5 121.437 1127.84 119.927C1124.19 118.337 1121.01 116.232 1118.31 113.609C1115.69 110.908 1113.58 107.729 1111.99 104.073C1110.48 100.418 1109.73 96.5238 1109.73 92.3916C1109.73 88.18 1110.48 84.2858 1111.99 80.71C1113.58 77.0548 1115.69 73.8765 1118.31 71.1748C1121.01 68.4729 1124.19 66.3663 1127.84 64.8564C1131.5 63.3467 1135.39 62.5918 1139.53 62.5918ZM1274.21 62.5918C1278.42 62.5918 1282.31 63.3467 1285.89 64.8564C1289.54 66.3663 1292.72 68.4729 1295.42 71.1748C1298.13 73.8765 1300.23 77.0548 1301.74 80.71C1303.25 84.2858 1304.01 88.18 1304.01 92.3916C1304.01 96.5238 1303.25 100.418 1301.74 104.073C1300.23 107.729 1298.13 110.908 1295.42 113.609C1292.72 116.232 1289.54 118.337 1285.89 119.927C1282.31 121.437 1278.42 122.192 1274.21 122.192C1270.07 122.192 1266.18 121.437 1262.53 119.927C1258.87 118.337 1255.69 116.232 1252.99 113.609C1250.37 110.908 1248.26 107.729 1246.67 104.073C1245.16 100.418 1244.41 96.5237 1244.41 92.3916C1244.41 88.18 1245.16 84.2858 1246.67 80.71C1248.26 77.0548 1250.37 73.8765 1252.99 71.1748C1255.69 68.473 1258.87 66.3663 1262.53 64.8564C1266.18 63.3466 1270.07 62.5918 1274.21 62.5918ZM1365.92 63.7842H1379.62V76.8965H1365.92V95.9678C1365.92 100.259 1367.07 103.517 1369.37 105.742C1371.76 107.967 1375.17 109.08 1379.62 109.08V122.192C1375.57 122.192 1371.88 121.557 1368.54 120.285C1365.28 119.014 1362.46 117.265 1360.08 115.04C1357.77 112.736 1355.98 109.954 1354.71 106.696C1353.44 103.438 1352.8 99.8616 1352.8 95.9678V76.8965H1345.65V63.7842H1352.8V48.2881H1365.92V63.7842ZM1415.75 62.5918C1420.04 62.5918 1423.98 63.3466 1427.55 64.8564C1431.21 66.2868 1434.35 68.3538 1436.97 71.0557C1439.59 73.678 1441.62 76.8163 1443.05 80.4717C1444.56 84.127 1445.31 88.1006 1445.31 92.3916C1445.31 92.9478 1445.27 93.5044 1445.19 94.0605C1445.19 94.5373 1445.11 95.1732 1444.96 95.9678H1399.54C1400.26 100.021 1402 103.239 1404.79 105.623C1407.65 107.928 1411.3 109.08 1415.75 109.08C1418.77 109.08 1421.43 108.524 1423.74 107.411C1426.12 106.299 1428.03 104.67 1429.46 102.524H1443.76C1442.81 105.544 1441.46 108.286 1439.71 110.749C1437.96 113.133 1435.86 115.199 1433.39 116.947C1431.01 118.616 1428.31 119.927 1425.29 120.881C1422.35 121.755 1419.17 122.192 1415.75 122.192C1411.46 122.192 1407.49 121.477 1403.83 120.047C1400.26 118.537 1397.16 116.47 1394.53 113.848C1391.91 111.225 1389.85 108.087 1388.34 104.432C1386.91 100.776 1386.19 96.7623 1386.19 92.3916C1386.19 88.1006 1386.91 84.127 1388.34 80.4717C1389.85 76.8164 1391.91 73.6779 1394.53 71.0557C1397.16 68.3538 1400.26 66.2868 1403.83 64.8564C1407.49 63.3467 1411.46 62.5918 1415.75 62.5918ZM543.176 54.248H501.456V73.916H539.004V87.0283H501.456V107.888H543.176V121H487.152V41.1357H543.176V54.248ZM701.037 121H687.925V63.7842H701.037V121ZM931.13 99.5439H918.019V91.7959C918.019 89.4915 917.581 87.3856 916.707 85.4785C915.912 83.4918 914.8 81.7829 913.369 80.3525C911.939 78.9224 910.23 77.8102 908.244 77.0156C906.337 76.1415 904.23 75.7041 901.926 75.7041C899.701 75.7041 897.595 76.1415 895.608 77.0156C893.701 77.8103 891.992 78.9222 890.482 80.3525C889.052 81.7829 887.9 83.4919 887.026 85.4785C886.232 87.3857 885.834 89.4914 885.834 91.7959C885.834 94.0209 886.232 96.1267 887.026 98.1133C887.9 100.1 889.052 101.809 890.482 103.239C891.992 104.67 893.701 105.822 895.608 106.696C897.595 107.491 899.701 107.888 901.926 107.888H931.13V121H901.926C897.873 121 894.058 120.245 890.482 118.735C886.907 117.226 883.808 115.159 881.186 112.537C878.563 109.915 876.497 106.855 874.987 103.358C873.477 99.7824 872.722 95.9282 872.722 91.7959C872.722 87.7431 873.438 83.9285 874.868 80.3525C876.378 76.7767 878.365 73.678 880.828 71.0557C883.371 68.4333 886.351 66.3663 889.768 64.8564C893.264 63.3466 896.96 62.5918 900.854 62.5918C904.191 62.5918 907.291 63.1086 910.151 64.1416C913.012 65.1747 915.635 66.605 918.019 68.4326V41.1357H931.13V99.5439ZM1340.31 75.7041C1336.1 75.7042 1332.76 76.8567 1330.3 79.1611C1327.84 81.4655 1326.6 84.6042 1326.6 88.5771V121H1313.49V89.0547C1313.49 85.0019 1314.13 81.346 1315.4 78.0879C1316.67 74.83 1318.46 72.0486 1320.76 69.7441C1323.15 67.4396 1325.97 65.691 1329.23 64.499C1332.56 63.2277 1336.26 62.5918 1340.31 62.5918V75.7041ZM808.35 75.7041C805.966 75.7041 803.74 76.1415 801.674 77.0156C799.687 77.8102 797.939 78.9621 796.43 80.4717C794.999 81.9815 793.847 83.7698 792.973 85.8359C792.099 87.8225 791.661 90.0078 791.661 92.3916C791.661 94.7756 792.099 97.0013 792.973 99.0674C793.847 101.054 794.999 102.802 796.43 104.312C797.939 105.742 799.687 106.894 801.674 107.769C803.74 108.643 805.966 109.08 808.35 109.08C810.734 109.08 812.919 108.643 814.905 107.769C816.971 106.894 818.76 105.742 820.27 104.312C821.779 102.802 822.932 101.054 823.727 99.0674C824.601 97.0013 825.037 94.7756 825.037 92.3916C825.037 90.0078 824.601 87.8225 823.727 85.8359C822.932 83.7698 821.779 81.9815 820.27 80.4717C818.76 78.9619 816.971 77.8103 814.905 77.0156C812.919 76.1415 810.734 75.7041 808.35 75.7041ZM1139.53 75.7041C1137.14 75.7041 1134.92 76.1415 1132.85 77.0156C1130.86 77.8102 1129.12 78.9621 1127.61 80.4717C1126.18 81.9815 1125.02 83.7698 1124.15 85.8359C1123.27 87.8225 1122.84 90.0078 1122.84 92.3916C1122.84 94.7756 1123.27 97.0013 1124.15 99.0674C1125.02 101.054 1126.18 102.802 1127.61 104.312C1129.12 105.742 1130.86 106.894 1132.85 107.769C1134.92 108.643 1137.14 109.08 1139.53 109.08C1141.91 109.08 1144.09 108.643 1146.08 107.769C1148.15 106.894 1149.94 105.742 1151.45 104.312C1152.96 102.802 1154.11 101.054 1154.9 99.0674C1155.78 97.0013 1156.21 94.7756 1156.21 92.3916C1156.21 90.0078 1155.78 87.8225 1154.9 85.8359C1154.11 83.7698 1152.96 81.9815 1151.45 80.4717C1149.94 78.9619 1148.15 77.8103 1146.08 77.0156C1144.09 76.1415 1141.91 75.7041 1139.53 75.7041ZM1274.21 75.7041C1271.82 75.7041 1269.6 76.1415 1267.53 77.0156C1265.55 77.8103 1263.8 78.9619 1262.29 80.4717C1260.86 81.9815 1259.7 83.7698 1258.83 85.8359C1257.96 87.8225 1257.52 90.0078 1257.52 92.3916C1257.52 94.7756 1257.96 97.0013 1258.83 99.0674C1259.7 101.054 1260.86 102.802 1262.29 104.312C1263.8 105.742 1265.55 106.894 1267.53 107.769C1269.6 108.643 1271.82 109.08 1274.21 109.08C1276.59 109.08 1278.78 108.643 1280.76 107.769C1282.83 106.894 1284.62 105.742 1286.13 104.312C1287.64 102.802 1288.79 101.054 1289.58 99.0674C1290.46 97.0013 1290.9 94.7756 1290.9 92.3916C1290.9 90.0078 1290.46 87.8225 1289.58 85.8359C1288.79 83.7698 1287.64 81.9815 1286.13 80.4717C1284.62 78.9621 1282.83 77.8102 1280.76 77.0156C1278.78 76.1415 1276.59 75.7041 1274.21 75.7041ZM970.265 75.7041C966.291 75.7041 962.954 76.6573 960.252 78.5645C957.55 80.4716 955.682 83.0942 954.649 86.4316H985.88C984.767 83.0942 982.86 80.4716 980.158 78.5645C977.456 76.6574 974.158 75.7041 970.265 75.7041ZM1415.75 75.7041C1411.78 75.7041 1408.44 76.6575 1405.74 78.5645C1403.04 80.4716 1401.17 83.0942 1400.14 86.4316H1431.37C1430.25 83.0942 1428.35 80.4716 1425.65 78.5645C1422.94 76.6573 1419.65 75.7042 1415.75 75.7041ZM694.48 36.3682C696.864 36.3682 698.851 37.1628 700.44 38.752C702.03 40.3413 702.825 42.328 702.825 44.7119C702.825 47.0959 702.03 49.0825 700.44 50.6719C698.851 52.2611 696.864 53.0557 694.48 53.0557C692.097 53.0556 690.11 52.2611 688.521 50.6719C686.931 49.0826 686.137 47.0958 686.137 44.7119C686.137 42.328 686.931 40.3412 688.521 38.752C690.11 37.1627 692.097 36.3682 694.48 36.3682Z" fill="#042222"/>
</svg>
