<svg width="955" height="955" viewBox="0 0 955 955" fill="none" xmlns="http://www.w3.org/2000/svg">
<g clip-path="url(#clip0_210_670)">
<path d="M755.363 0C865.612 0 954.896 89.3882 954.896 199.637V479.27C954.896 570.743 955 662.217 955 753.587C955 754.213 955 754.839 954.896 755.465V755.468C955 758.597 954.896 761.831 954.688 764.96C954.479 767.985 954.27 771.009 953.957 774.034C953.644 777.163 953.227 780.396 952.81 783.525C939.354 880.423 856.12 955 755.363 955H199.532C196.09 955 192.231 954.896 188.059 954.688C185.034 954.479 182.114 954.27 179.089 953.957C175.96 953.644 172.83 953.227 169.701 952.81C164.173 951.975 158.332 950.828 152.282 949.368C150.509 948.951 147.485 948.22 143.626 946.969C140.914 946.239 137.889 945.195 134.447 944.048C131.318 942.901 127.772 941.545 124.121 939.98C121.618 939.042 119.114 937.999 116.715 936.747C113.69 935.391 110.457 933.827 107.224 932.054C104.929 930.906 102.634 929.655 100.34 928.299C98.2538 927.152 96.0633 925.9 93.873 924.439C90.7441 922.562 87.7192 920.58 84.7988 918.494C83.8602 917.868 82.9211 917.243 81.9824 916.513C79.6878 914.844 77.2888 913.174 74.9941 911.297C72.9081 909.628 70.8214 907.855 68.7354 906.082C68.2139 905.665 67.7968 905.247 67.2754 904.83C64.9809 902.848 62.7906 900.763 60.4961 898.572C58.7229 896.799 56.9491 895.026 55.2803 893.253C53.6114 891.48 51.9434 889.706 50.3789 887.933C46.9369 884.073 43.807 880.11 40.7822 876.146C15.7497 843.395 0.730368 802.822 0.104492 758.493C0.104492 756.512 1.19618e-05 754.842 0 753.591V199.637C0 89.3882 89.2838 0 199.532 0H755.363Z" fill="#02DF82"/>
<path d="M652.334 597.282C639.97 574.64 627.597 554.846 615.259 537.814C611.135 532.128 607.01 526.766 602.895 521.703C586.185 501.661 568.06 485.303 548.777 472.848C598.438 444.282 637.729 404.899 666.445 354.672C677.6 335.091 686.589 314.589 693.389 293.141C710.568 239.147 667.272 184.632 609.499 184.632C609.499 217.349 603.824 248.004 592.286 276.791C580.774 305.604 565.01 330.496 544.977 351.91C524.977 373.332 501.459 389.93 474.149 402.145C468.619 404.609 463.003 406.834 457.328 408.777C457.243 367.373 457.166 325.935 457.055 284.531C458.717 284.668 461.043 284.907 463.779 285.427C482.517 288.947 494.83 300.234 501.459 306.465C506.708 311.392 514.113 319.465 520.461 331.297C528.011 323.924 536.43 314.632 544.678 303.234C553.6 290.908 560.11 279.178 564.856 269.153C554.657 260.347 541.798 250.689 526.077 241.653C500.726 227.101 476.884 219.318 458.709 214.979C458.683 213.684 458.709 211.484 458.734 208.782C458.981 193.045 460.063 189.261 458.93 181.921C458.044 176.371 457.55 173.064 455.087 169.304C450.861 162.877 442.723 157.924 433.401 158.001C420.926 158.086 413.7 167.156 412.626 168.537C408.28 174.223 407.454 180.131 407.232 182.782C407.258 193.83 407.258 204.878 407.258 215.96C406.653 216.096 405.571 216.335 404.216 216.667C390.13 219.941 379.317 223.086 377.161 223.598C354.589 228.985 335.442 240.331 318.868 255.718C298.503 274.617 285.891 297.83 280.574 325.015C274.405 356.675 277.14 387.679 289.845 416.978C300.411 441.375 317.846 461.204 340.725 476.258C354.887 485.601 369.501 493.998 385.265 500.118C387.531 500.988 389.832 501.798 392.15 502.582C393.948 503.204 395.277 503.588 396.078 503.827C398.592 504.611 402.358 505.804 407.531 507.56C407.59 511.405 407.667 515.275 407.727 519.12V519.768C407.531 568.435 407.343 617.127 407.147 665.785C405.792 665.325 403.824 664.618 401.447 663.671C401.447 663.671 392.15 659.69 383.68 655.002C364.593 644.44 353.166 627.22 345.999 608.074C338.194 587.223 326.656 577.88 304.169 577.096C283.557 576.362 266.821 596.08 268.065 614.254C269.727 638.49 281.341 659.204 296.449 677.728C304.144 687.157 312.827 695.545 322.456 702.808C325.08 704.811 334.522 711.776 348.905 718.808C361.159 724.818 380.97 732.78 407.727 736.488C407.147 749.923 407.147 761.073 407.309 769.393C407.445 776.869 407.667 780.365 410.019 784.124C414.884 792.001 425.263 795.257 433.537 794.984C434.585 794.959 448.338 794.311 455.061 784.149C457.192 780.953 457.72 777.918 458.743 771.831C459.987 764.466 459.237 760.596 459.322 744.996C459.348 741.688 459.382 739.012 459.433 737.307C473.476 736.258 494.054 733.053 516.729 723.113C532.962 715.995 545.564 707.496 554.648 700.285C548.044 689.441 541.364 677.601 534.836 664.754C528.829 652.947 523.597 641.55 519.021 630.724C514.974 635.532 511.344 639.214 508.762 641.712C499.031 651.098 487.084 662.478 469.394 666.706C465.773 667.576 462.287 668.087 459.015 668.334C458.99 666.084 458.93 662.785 458.879 658.778C458.24 609.762 460.259 588.8 459.015 544.446C458.93 541.932 458.819 537.541 458.598 532.018C462.969 535.027 468.942 539.136 476.501 544.498C477.029 544.873 477.191 544.983 477.361 545.12C480.182 547.123 487.323 552.459 496.227 561.368C502.814 567.949 509.256 575.399 515.57 583.685C528.045 599.797 540.75 620.298 554.162 644.508L570.208 673.483C606.729 739.532 677.276 780.671 754 780.671L652.326 597.282H652.334ZM407.923 414.787C406.15 414.838 403.466 414.813 400.339 414.242C376.684 409.937 356.872 380.391 357.316 352.822C357.537 339.311 360.579 327.768 366.331 317.939C375.679 301.879 389.236 294.267 394.774 291.24C400.117 288.316 404.898 286.526 408.306 285.418C407.999 307.787 407.701 330.155 407.369 352.549H407.283C407.505 373.29 407.701 394.038 407.923 414.779V414.787Z" fill="#042222"/>
</g>
<defs>
<clipPath id="clip0_210_670">
<rect width="955" height="955" fill="white"/>
</clipPath>
</defs>
</svg>
